<svg xmlns="http://www.w3.org/2000/svg" viewBox="0 0 16 16" width="16" height="16" shape-rendering="crispEdges"><rect x="5" y="5" width="1" height="1" fill="#ececec" fill-opacity="0.83"/><rect x="6" y="5" width="1" height="1" fill="#ececec" fill-opacity="0.84"/><rect x="7" y="5" width="1" height="1" fill="#ececec" fill-opacity="0.89"/><rect x="8" y="5" width="1" height="1" fill="#ececec" fill-opacity="0.78"/><rect x="9" y="5" width="1" height="1" fill="#ececec" fill-opacity="0.76"/><rect x="10" y="5" width="1" height="1" fill="#ececec" fill-opacity="0.99"/><rect x="5" y="6" width="1" height="1" fill="#ececec" fill-opacity="0.92"/><rect x="10" y="6" width="1" height="1" fill="#ececec" fill-opacity="0.83"/><rect x="5" y="7" width="1" height="1" fill="#ececec" fill-opacity="0.74"/><rect x="10" y="7" width="1" height="1" fill="#ececec" fill-opacity="0.88"/><rect x="5" y="8" width="1" height="1" fill="#ececec" fill-opacity="0.84"/><rect x="10" y="8" width="1" height="1" fill="#ececec" fill-opacity="0.83"/><rect x="5" y="9" width="1" height="1" fill="#ececec" fill-opacity="0.79"/><rect x="10" y="9" width="1" height="1" fill="#ececec" fill-opacity="0.83"/><rect x="5" y="10" width="1" height="1" fill="#ececec" fill-opacity="0.80"/><rect x="6" y="10" width="1" height="1" fill="#ececec" fill-opacity="0.80"/><rect x="7" y="10" width="1" height="1" fill="#ececec" fill-opacity="0.89"/><rect x="8" y="10" width="1" height="1" fill="#ececec" fill-opacity="0.71"/><rect x="9" y="10" width="1" height="1" fill="#ececec" fill-opacity="0.85"/><rect x="10" y="10" width="1" height="1" fill="#ececec" fill-opacity="0.80"/><rect x="7" y="4" width="1" height="1" fill="#e5484d" fill-opacity="0.95"/><rect x="6" y="4" width="1" height="1" fill="#e5484d" fill-opacity="0.45"/><rect x="5" y="4" width="1" height="1" fill="#e5484d" fill-opacity="0.18"/><rect x="8" y="11" width="1" height="1" fill="#4d82e5" fill-opacity="0.95"/><rect x="9" y="11" width="1" height="1" fill="#4d82e5" fill-opacity="0.45"/><rect x="10" y="11" width="1" height="1" fill="#4d82e5" fill-opacity="0.18"/></svg>
